<?xml version="1.0" encoding="UTF-8" standalone="no"?>
<!-- Created with Inkscape (http://www.inkscape.org/) -->

<svg
   width="150"
   height="300"
   viewBox="0 0 154.73121 291.19794"
   version="1.1"
   id="svg3760"
   sodipodi:docname="body_back_svg.svg"
   inkscape:version="1.1.1 (3bf5ae0d25, 2021-09-20)"
   xmlns:inkscape="http://www.inkscape.org/namespaces/inkscape"
   xmlns:sodipodi="http://sodipodi.sourceforge.net/DTD/sodipodi-0.dtd"
   xmlns="http://www.w3.org/2000/svg"
   xmlns:svg="http://www.w3.org/2000/svg">
  <sodipodi:namedview
     id="namedview3762"
     pagecolor="#ffffff"
     bordercolor="#666666"
     borderopacity="1.0"
     inkscape:pageshadow="2"
     inkscape:pageopacity="0.0"
     inkscape:pagecheckerboard="0"
     inkscape:document-units="mm"
     showgrid="false"
     fit-margin-top="0"
     fit-margin-left="0"
     fit-margin-right="0"
     fit-margin-bottom="0"
     inkscape:zoom="1"
     inkscape:cx="-9.5"
     inkscape:cy="226.5"
     inkscape:window-width="1680"
     inkscape:window-height="987"
     inkscape:window-x="1672"
     inkscape:window-y="-8"
     inkscape:window-maximized="1"
     inkscape:current-layer="layer2"
     showguides="false"
     inkscape:guide-bbox="true">
    <sodipodi:guide
       position="76.205121,236.96232"
       orientation="1,0"
       id="guide310" />
    <sodipodi:guide
       position="80.073401,234.05034"
       orientation="1,0"
       id="guide312" />
  </sodipodi:namedview>
  <defs
     id="defs3757" />
  <g
     inkscape:groupmode="layer"
     id="layer2"
     inkscape:label="back"
     style="display:inline">
    <path
       style="display:inline;fill:#000000;stroke-width:0.342791"
       d="m 70.587982,31.681534 c -1.185118,-0.233403 -2.296728,-0.566343 -2.470243,-0.739851 -0.173515,-0.173515 -0.421535,-1.587123 -0.551148,-3.141356 -0.171008,-2.050509 -0.364617,-2.825869 -0.705611,-2.825869 -1.670866,0 -3.769781,-8.758666 -2.376103,-9.915322 0.381979,-0.317009 0.587874,-0.251814 0.982057,0.310972 0.454833,0.649356 0.514496,0.416853 0.677531,-2.640287 0.206775,-3.877304 1.247057,-7.3619098 2.737662,-9.1702663 2.210934,-2.6822499 7.622193,-4.20377649 11.612982,-3.2653206 5.796862,1.3631717 8.516358,5.456325 8.526149,12.8328659 l 0.0041,3.064061 0.715164,-0.767646 c 0.565743,-0.607246 0.816419,-0.683603 1.199775,-0.365449 0.660101,0.547836 0.605352,2.022654 -0.199756,5.380923 -0.707403,2.950677 -1.486197,4.535469 -2.228821,4.535469 -0.560121,0 -0.846986,1.102127 -0.85286,3.276682 -0.0028,0.953786 -0.197499,1.990226 -0.433165,2.303221 -1.032637,1.371444 -11.720708,2.095535 -16.637688,1.127173 z"
       id="head" />
    <path
       style="display:inline;fill:#000000;stroke-width:0.342791"
       d="m 64.172971,42.065503 c -1.885347,-0.163384 -3.654864,-0.381823 -3.93225,-0.485422 -0.313651,-0.11713 0.591533,-0.7739 2.394057,-1.737008 3.572219,-1.908678 5.823083,-3.705239 5.823083,-4.647797 0,-0.585667 0.156889,-0.669832 0.94268,-0.505746 3.663156,0.76496 8.464702,1.021939 11.973946,0.640866 2.039811,-0.221506 4.055821,-0.500623 4.480019,-0.620247 0.558813,-0.157585 0.771284,-0.07291 0.771284,0.30753 0,0.842312 2.878695,3.141398 5.925044,4.732051 l 2.816127,1.470442 -1.199761,0.256162 c -4.267462,0.911138 -22.211535,1.2636 -29.994229,0.589169 z"
       id="neck" />
    <path
       style="display:inline;fill:#000000;stroke-width:0.342791"
       d="m 35.778447,67.937603 c -0.500936,-0.500937 -0.206052,-5.919929 0.464904,-8.543512 1.066993,-4.172188 2.434246,-6.752019 4.971,-9.379643 2.581269,-2.673733 5.615545,-4.286021 9.139112,-4.856125 1.190542,-0.192621 2.665946,-0.479192 3.278684,-0.636811 l 1.114076,-0.286592 -0.0041,4.167104 c -0.0068,6.588132 -0.994711,9.211906 -4.926614,13.079684 -1.871821,1.841288 -3.196937,2.771478 -5.69584,3.998297 -4.313705,2.117775 -7.687149,3.111703 -8.341248,2.457598 z"
       id="shoulder_L" />
    <path
       style="display:inline;fill:#000000;stroke-width:0.342791"
       d="m 116.9628,68.075522 c -6.59597,-2.392715 -10.09222,-4.375841 -12.72968,-7.220459 -3.36856,-3.633163 -4.22841,-6.205669 -4.234413,-12.668575 -0.0038,-4.251597 0.01612,-4.371862 0.669793,-4.02201 0.37062,0.198352 2.02799,0.596774 3.68304,0.885396 7.56834,1.319808 12.14649,5.613392 14.45099,13.552764 0.60862,2.096768 0.73714,3.301688 0.65806,6.170236 -0.10889,3.950641 -0.23863,4.122167 -2.49779,3.302648 z"
       id="shoulder_R" />
    <path
       style="display:inline;fill:#000000;stroke-width:0.342791"
       d="m 72.220145,80.935096 c -0.0048,-0.141401 -0.154729,-4.730517 -0.333573,-10.198031 -0.358956,-10.97388 -0.797388,-17.015231 -1.554819,-21.424446 -0.275294,-1.602544 -0.501032,-3.073784 -0.501631,-3.269424 -6.81e-4,-0.238615 2.565917,-0.318876 7.797397,-0.243801 4.289176,0.06153 7.769067,0.232776 7.733089,0.380528 -0.753213,3.09349 -1.81994,16.497902 -1.81994,22.869216 0,2.094634 -0.100831,5.683724 -0.224075,7.975744 l -0.224073,4.167309 h -5.43198 c -2.987581,0 -5.435761,-0.115693 -5.440395,-0.257095 z"
       id="thoracicSpine" />
    <path
       style="display:inline;fill:#000000;stroke-width:0.342791"
       d="m 114.6215,103.55931 c -0.28108,-0.89555 -0.59774,-2.55381 -0.70368,-3.68501 -0.10593,-1.131207 -0.49214,-2.905156 -0.85821,-3.942096 -1.40188,-3.970979 -1.38717,-4.062973 1.04833,-6.556622 1.89948,-1.944825 2.44639,-2.297689 4.39742,-2.837239 3.09086,-0.85474 3.75959,-1.147669 3.98981,-1.747604 0.11887,-0.309753 0.58428,0.589203 1.14821,2.217809 0.63995,1.848109 1.5613,3.549249 2.83335,5.231291 3.39113,4.484192 3.28362,4.000538 1.40255,6.309972 -1.72717,2.120489 -3.03548,3.337249 -4.66179,4.335529 -1.39516,0.85638 -5.82824,2.30222 -7.05887,2.30222 -0.92384,0 -1.077,-0.16224 -1.53712,-1.62825 z"
       id="elbow_R" />
    <path
       style="display:inline;fill:#000000;stroke-width:0.342791"
       d="m 33.912356,105.014 c -1.371996,-0.47187 -3.079166,-1.22701 -3.793703,-1.67809 -1.64954,-1.04131 -5.538052,-5.263675 -5.538052,-6.013525 0,-0.576326 2.351553,-4.017721 4.218516,-6.173613 0.563985,-0.651264 1.399408,-2.001005 1.856496,-2.999416 0.457096,-0.998411 0.91319,-1.8153 1.013558,-1.8153 0.588516,0 4.529754,1.165255 5.408105,1.598945 0.573966,0.283404 2.01235,1.539515 3.196411,2.791382 2.346416,2.480772 2.399891,2.727676 1.202065,5.550606 -0.279996,0.659877 -0.643265,2.342128 -0.807254,3.738341 -0.164038,1.39653 -0.649943,3.24706 -1.080117,4.11349 -0.685626,1.38092 -0.929747,1.58541 -1.981715,1.66003 -0.65987,0.0469 -2.322314,-0.30096 -3.69431,-0.77285 z"
       id="elbow_L" />
    <path
       style="display:inline;fill:#000000;stroke-width:0.342791"
       d="m 88.888578,113.8134 c -0.914771,-1.48012 -1.777579,-8.89078 -2.241529,-19.252354 -0.337355,-7.534237 0.03884,-28.711626 0.662895,-37.318888 0.359651,-4.960356 1.17951,-10.490387 1.673837,-11.290235 0.140407,-0.227182 1.556939,-0.569661 3.147843,-0.76107 1.590894,-0.191402 3.294905,-0.429553 3.786677,-0.529234 l 0.89414,-0.181229 0.188436,4.729952 c 0.278866,7.000017 1.489963,10.008673 5.698553,14.156719 3.71786,3.664377 6.52448,5.184901 14.01909,7.595039 l 2.49805,0.803337 1.20493,3.427908 c 0.66272,1.885353 1.40298,4.430577 1.64498,5.656053 l 0.44007,2.22814 h -2.42909 c -3.0537,0 -5.55758,1.135663 -7.95679,3.608897 l -1.65688,1.707969 -0.81789,-1.630059 c -0.44986,-0.896529 -1.01612,-1.861437 -1.25836,-2.144247 -0.43389,-0.50655 -1.9426,-3.872642 -2.74386,-6.121864 l -0.41018,-1.151403 -0.22736,2.008378 c -0.21942,1.938304 -1.55448,7.237692 -3.44214,13.663272 -1.26955,4.321562 -1.35907,10.094369 -0.23857,15.385569 0.60377,2.85113 0.69214,3.79116 0.37484,3.98727 -0.49378,0.30517 -4.412809,0.92989 -7.53307,1.20081 -1.22549,0.10642 -2.870058,0.27164 -3.654615,0.36718 -0.784557,0.0956 -1.51536,0.0299 -1.624007,-0.14591 z"
       id="body_R" />
    <path
       style="display:inline;fill:#000000;stroke-width:0.342791"
       d="m 57.036853,113.5917 c -1.850977,-0.23608 -3.490466,-0.56534 -3.643301,-0.73168 -0.152842,-0.16634 0.09624,-2.15352 0.553512,-4.41594 0.701946,-3.47296 0.810137,-4.8341 0.694825,-8.74118 C 54.517877,95.501164 54.387943,94.71238 53.230182,91.133134 51.86402,86.90957 50.532546,81.27485 50.111653,77.935674 l -0.259255,-2.056744 -0.407777,1.755488 c -0.419517,1.805992 -1.829629,4.834497 -4.401495,9.453062 l -1.469401,2.638771 -1.18387,-1.489385 C 40.25608,85.55247 36.922368,83.7207 33.839646,83.538817 l -1.452938,-0.08572 0.212729,-1.810026 c 0.117002,-0.995515 0.844356,-3.548111 1.616355,-5.672421 0.771992,-2.124329 1.45287,-4.035917 1.51305,-4.247992 0.06017,-0.212068 0.54588,-0.464693 1.079318,-0.561375 5.986024,-1.084906 12.200264,-4.378117 15.994227,-8.476047 3.565854,-3.851547 4.650236,-6.81887 4.928814,-13.487256 l 0.198114,-4.742332 1.065085,0.186578 c 0.585796,0.102617 2.067741,0.278905 3.293224,0.39175 3.742191,0.344592 3.699298,0.321295 4.257566,2.312066 1.247588,4.448859 1.884475,12.425653 2.14131,26.818951 0.286742,16.070016 -0.667133,34.833397 -1.973566,38.821087 l -0.364985,1.11406 -2.972836,-0.0396 c -1.635066,-0.0217 -4.487282,-0.23275 -6.33826,-0.46884 z"
       id="body_L" />
    <path
       style="display:inline;fill:#000000;stroke-width:0.342791"
       d="m 70.130628,114.29914 c -0.116926,-0.12335 -0.01288,-1.1827 0.231194,-2.35408 0.635682,-3.05079 1.199632,-10.53286 1.465313,-19.440762 l 0.230036,-7.712797 h 5.484658 5.48465 l 0.237409,7.541394 c 0.268795,8.538555 0.746652,14.448065 1.506877,18.635215 0.286278,1.57677 0.438725,2.94861 0.338765,3.04858 -0.270749,0.27075 -14.731532,0.54344 -14.978902,0.28245 z"
       id="lumbarSpine" />
    <path
       style="display:inline;fill:#000000;stroke-width:0.342791"
       d="m 22.081099,126.56769 c -1.280472,-0.65768 -3.092971,-1.37749 -4.027801,-1.59955 -1.829909,-0.43468 -2.005496,-0.769 -1.33035,-2.53302 0.346513,-0.90537 3.217291,-11.84891 4.299683,-16.39059 0.269598,-1.1312 0.730836,-2.79178 1.024971,-3.69018 l 0.534801,-1.63344 2.455962,2.50876 c 2.746771,2.80581 5.290557,4.27056 9.137641,5.2616 1.321259,0.34035 2.402289,0.78722 2.402289,0.99303 0,0.63993 -2.875322,6.04568 -4.475161,8.41353 -3.240669,4.79638 -7.023722,9.87626 -7.351136,9.87109 -0.188527,-0.003 -1.390441,-0.54353 -2.670899,-1.20123 z"
       id="forearm_L" />
    <path
       style="display:inline;fill:#000000;stroke-width:0.342791"
       d="m 127.74418,126.32912 c -4.7276,-6.74774 -6.61062,-9.69824 -8.17144,-12.80392 -2.3196,-4.61544 -2.55414,-5.25252 -1.93357,-5.25252 0.26841,0 1.71572,-0.38783 3.21628,-0.86187 3.4199,-1.08034 6.462,-3.0918 8.64723,-5.71763 l 1.69196,-2.03309 0.66515,1.55174 c 0.78649,1.83482 0.8666,2.13662 2.92053,11.00295 0.87352,3.77068 1.91175,8.06616 2.30722,9.54549 0.74629,2.79177 0.63885,3.28884 -0.71419,3.30392 -0.62338,0.007 -4.34689,1.65763 -5.90836,2.61928 l -1.23783,0.76231 z"
       id="forearm_R" />
    <path
       style="display:inline;fill:#000000;stroke-width:0.342791"
       d="m 68.286464,154.69233 c -6.959795,-1.07455 -14.867973,-4.2556 -18.477648,-7.43259 l -1.680889,-1.47941 1.073405,-5.29928 c 0.590368,-2.91461 1.244849,-6.68759 1.454409,-8.3844 0.209554,-1.69682 0.697585,-4.55056 1.084511,-6.34164 0.386927,-1.79107 0.88665,-4.64481 1.110493,-6.34163 0.223842,-1.69681 0.549083,-3.06255 0.722749,-3.03496 5.971386,0.94853 12.087772,1.28574 23.625541,1.30253 12.206859,0.0177 16.947902,-0.26207 23.537215,-1.38933 l 1.2558,-0.21483 0.21237,2.01109 c 0.2191,2.07463 0.40225,3.10594 1.55437,8.75181 0.3718,1.82204 0.90278,5.13854 1.17992,7.37 0.27715,2.23146 0.74355,5.42715 1.03644,7.10152 0.76464,4.3713 0.75509,4.42372 -1.09574,6.01553 -2.15843,1.85634 -8.436609,4.9604 -12.148173,6.00628 -3.400356,0.9582 -9.301124,1.90203 -11.89119,1.90203 -1.619156,0 -1.755665,-0.0632 -1.755665,-0.8135 0,-0.73103 -0.156371,-0.81665 -1.542553,-0.84447 -1.419162,-0.0285 -1.542561,0.0365 -1.542561,0.81351 0,0.8173 -0.07443,0.8434 -2.313845,0.81126 -1.272608,-0.0182 -3.702139,-0.24754 -5.398959,-0.50952 z"
       id="hip" />
    <path
       style="display:inline;fill:#000000;stroke-width:0.342791"
       d="m 12.085727,164.03104 c -0.511164,-0.37377 -0.527334,-0.91507 -0.173114,-5.79479 0.364359,-5.0194 0.31365,-7.39172 -0.115448,-5.40074 -0.101574,0.47134 -0.514979,2.39954 -0.918668,4.28489 -0.9716797,4.53806 -1.5065625,5.73468 -2.5002516,5.5935 -0.6901572,-0.0981 -0.7633382,-0.29506 -0.7409209,-1.9942 0.013623,-1.03693 0.1349426,-2.96513 0.2694548,-4.28488 l 0.2445848,-2.39953 -0.786677,1.88535 c -0.6551746,1.5702 -0.9294128,1.88534 -1.6406192,1.88534 -1.3704489,0 -1.3380422,-1.22607 0.1902101,-7.19861 0.892032,-3.48617 0.8926044,-3.5059 0.1070388,-3.71133 -0.515504,-0.13481 -0.6691985,-0.371 -0.5273194,-0.81039 0.3605502,-1.11652 1.2306075,-4.37042 1.4244553,-5.32724 0.2243197,-1.10724 1.9085075,-3.11596 3.3033573,-3.93991 0.544469,-0.32162 0.989941,-0.76953 0.989941,-0.99535 0,-0.2258 0.877335,-2.13718 1.949635,-4.24749 l 1.949623,-3.83693 1.22472,0.16427 c 1.003868,0.13465 6.873708,2.54923 6.873708,2.82754 0,0.0445 -0.389461,0.96168 -0.865472,2.03801 -0.729685,1.64998 -0.914668,2.77257 -1.179108,7.15557 -0.325602,5.39675 -0.498804,6.33171 -1.916902,10.34762 -0.788904,2.23409 -0.830557,2.66722 -0.580686,6.03915 0.315421,4.2566 0.163642,5.22554 -0.841398,5.37148 -0.821843,0.11934 -1.099489,-0.46724 -1.307135,-2.76162 -0.383294,-4.23508 -0.617085,-5.74243 -0.890636,-5.74243 -0.166565,0 -0.322746,0.4242 -0.347051,0.94267 -0.103891,2.2155 -1.088259,8.45285 -1.483532,9.40025 -0.329724,0.79026 -1.039247,1.00157 -1.71179,0.5098 z"
       id="hand_L" />
    <path
       style="display:inline;fill:#000000;stroke-width:0.342791"
       d="m 139.40215,163.9408 c -0.43977,-1.15666 -1.3577,-7.27283 -1.3577,-9.0463 0,-0.75536 -0.14727,-1.37341 -0.32727,-1.37341 -0.33687,0 -0.4039,0.30727 -1.08429,4.97047 -0.41302,2.83061 -0.74023,3.5993 -1.53207,3.5993 -0.97646,0 -1.15926,-1.21385 -0.78121,-5.18816 0.36114,-3.7968 0.34414,-4.00486 -0.66877,-8.18073 -0.81628,-3.36518 -1.08212,-5.37382 -1.23862,-9.35862 -0.16327,-4.15779 -0.325,-5.32026 -0.89578,-6.43908 -0.38311,-0.75094 -0.6021,-1.51812 -0.48667,-1.70489 0.26866,-0.4347 4.38698,-2.49779 6.08526,-3.04844 1.49377,-0.48434 2.09868,-0.18191 2.45203,1.22592 0.12028,0.47927 0.59684,1.47041 1.059,2.20253 0.95305,1.50972 2.26683,4.77666 1.92744,4.79285 -0.1233,0.006 0.37081,0.37635 1.09802,0.82326 2.62526,1.61339 3.95639,3.26001 4.72337,5.84287 0.39312,1.32393 0.92501,2.81582 1.18197,3.31533 0.39963,0.77681 0.39479,0.96831 -0.0335,1.32375 -0.28438,0.236 -0.8729,0.32213 -1.36215,0.19934 -0.47378,-0.11892 -0.86144,-0.12839 -0.86144,-0.0211 0,0.10733 0.4517,1.92278 1.00376,4.03433 1.42146,5.43676 1.55808,6.53428 0.88313,7.09443 -0.8191,0.6798 -1.71174,-0.37584 -2.75881,-3.26259 -0.92362,-2.54642 -1.81318,-3.88265 -1.36433,-2.04941 0.31538,1.28808 0.82625,4.83416 1.0912,7.57404 0.17359,1.79519 0.11664,2.12219 -0.40439,2.32213 -0.36681,0.14075 -0.85832,0.005 -1.24389,-0.34418 -0.67306,-0.60911 -0.80019,-1.01706 -2.0156,-6.46688 -0.78804,-3.53356 -1.37388,-4.8697 -1.34518,-3.06797 0.009,0.55619 0.14501,3.01657 0.30255,5.46752 0.17046,2.65185 0.15906,4.69919 -0.0281,5.05617 -0.4772,0.90988 -1.62397,0.74366 -2.01792,-0.29251 z"
       id="hand_R" />
    <path
       style="display:inline;fill:#000000;stroke-width:0.342791"
       d="m 65.77302,188.44829 c -3.032702,-1.315 -6.278147,-1.86773 -15.468391,-2.63438 l -2.899021,-0.24185 -0.246356,-1.19977 c -1.228243,-5.9816 -1.314527,-29.24953 -0.126023,-33.9849 l 0.218658,-0.87121 2.999954,1.99649 c 1.649969,1.09806 4.146037,2.47196 5.546815,3.05309 4.814613,1.99743 12.242679,3.55665 18.315258,3.84456 l 1.713957,0.0813 -0.09929,2.39952 c -0.14932,3.60871 -1.999719,10.2107 -5.380317,19.19631 -0.993041,2.63949 -2.007029,5.64748 -2.253317,6.68441 -0.246287,1.03695 -0.535333,1.98326 -0.642317,2.1029 -0.106999,0.11965 -0.862815,-0.0722 -1.679609,-0.42642 z"
       id="upperLeg_L" />
    <path
       style="display:inline;fill:#000000;stroke-width:0.342791"
       d="m 85.104175,189.44044 c -0.07598,-0.24226 -0.323986,-1.52027 -0.551148,-2.84 -0.227148,-1.31975 -1.086985,-4.76729 -1.910742,-7.66118 -2.272669,-7.98399 -3.547436,-14.09318 -3.643873,-17.46299 l -0.08542,-2.98471 1.713957,-0.0813 c 6.147635,-0.29146 13.625656,-1.87187 18.339323,-3.87587 1.413998,-0.60116 3.861208,-1.93155 5.438198,-2.95642 1.57699,-1.02487 2.9653,-1.76545 3.08512,-1.64574 0.11981,0.11971 0.21629,3.63709 0.21439,7.81639 -0.004,8.25729 -0.83231,20.24273 -1.72565,24.96245 l -0.5615,2.96651 -2.79679,0.22293 c -8.479769,0.6759 -12.701544,1.56222 -16.29659,3.4213 -0.84426,0.43657 -1.111406,0.46256 -1.219276,0.1186 z"
       id="upperLeg_R" />
    <path
       style="display:inline;fill:#000000;stroke-width:0.342791"
       d="m 90.929724,214.22593 c -1.080491,-1.74826 -3.371693,-8.52785 -3.659157,-10.82729 -0.406727,-3.25349 -1.357591,-9.08878 -1.574013,-9.65952 -0.194714,-0.51349 4.205323,-2.6451 6.917082,-3.35102 1.125167,-0.2929 3.824643,-0.68887 5.99885,-0.87993 2.174204,-0.19106 4.539704,-0.40855 5.256704,-0.4833 l 1.3036,-0.13592 -0.0805,4.169 c -0.0987,5.10626 0.25286,10.61208 0.96215,15.06916 0.29397,1.8473 0.47435,3.41889 0.40084,3.49241 -0.43953,0.43952 -6.591812,1.91585 -9.90124,2.37594 -4.501035,0.62575 -5.358239,0.66089 -5.624247,0.23047 z"
       id="knee_R" />
    <path
       style="display:inline;fill:#000000;stroke-width:0.342791"
       d="m 56.117381,213.81615 c -3.842846,-0.64964 -11.312101,-2.91785 -11.312101,-3.43516 0,-0.17124 0.293257,-1.7355 0.65168,-3.47618 1.024345,-4.97463 1.748735,-11.08826 1.748278,-14.75478 l -4.97e-4,-3.36298 2.485228,0.20917 c 9.910171,0.83402 12.080318,1.20513 15.401152,2.63372 1.53127,0.65873 1.696153,0.83215 1.544776,1.62468 -0.09321,0.48797 -0.787311,3.74095 -1.542452,7.22886 -1.146708,5.2965 -1.6601,6.94532 -3.115185,10.00479 -0.958215,2.01472 -1.859079,3.72462 -2.001925,3.79975 -0.142853,0.0752 -1.879412,-0.1372 -3.859028,-0.47186 z"
       id="knee_L" />
    <path
       style="display:inline;fill:#000000;stroke-width:0.342791"
       d="m 38.168853,245.59238 c -0.676524,-12.58576 0.253107,-20.04254 3.527758,-28.29718 0.782063,-1.9714 1.463765,-3.62619 1.514902,-3.67733 0.05117,-0.0511 1.583199,0.43966 3.404584,1.09064 3.427941,1.22519 9.302911,2.57172 11.220556,2.57172 1.026185,0 1.081976,0.0611 0.859919,0.94269 -0.130601,0.51846 -0.367998,3.95066 -0.527558,7.62709 -0.410107,9.44975 -1.107249,12.65256 -4.352524,19.99658 l -1.641205,3.71401 -6.893517,0.0567 -6.893522,0.0567 z"
       id="lowerLeg_L" />
    <path
       style="display:inline;fill:#000000;stroke-width:0.342791"
       d="m 95.923319,247.11224 c -3.247358,-8.35259 -3.894852,-12.26611 -3.693213,-22.32198 l 0.139915,-6.97791 3.383819,-0.42356 c 3.94673,-0.49402 7.68312,-1.28573 10.27282,-2.17671 1.0107,-0.34774 1.8973,-0.52598 1.97021,-0.39612 0.36081,0.64261 2.32715,7.02136 2.76738,8.9773 1.01455,4.50772 1.32011,10.18755 0.88885,16.5223 -0.22206,3.26179 -0.50652,6.62468 -0.63214,7.47309 l -0.2284,1.54256 -3.9421,0.19996 c -2.87244,0.14569 -4.50018,0.40962 -5.99884,0.97264 -1.131216,0.42498 -2.308672,0.84961 -2.616578,0.94363 -0.445105,0.13589 -0.918827,-0.75249 -2.311723,-4.3352 z"
       id="lowerLeg_R" />
    <path
       style="display:inline;fill:#000000;stroke-width:0.342791"
       d="m 38.399516,287.86007 c -1.368875,-0.39604 -2.42996,-1.7166 -2.685229,-3.34186 -0.108034,-0.68788 -0.662152,-2.13717 -1.231363,-3.22061 -0.960226,-1.82774 -1.003965,-2.06282 -0.605918,-3.25653 0.461211,-1.38316 1.551535,-2.60184 2.051415,-2.29289 0.168895,0.10439 0.310739,-0.70628 0.315223,-1.80147 0.0054,-1.34629 0.289372,-2.65747 0.876415,-4.04804 1.005151,-2.38092 1.484234,-6.43553 1.502755,-12.71813 l 0.0122,-4.14836 5.106003,-0.23777 c 4.276359,-0.19913 6.89169,-0.0887 6.89169,0.29099 0,0.0443 -0.286374,0.91458 -0.636376,1.9339 -0.350008,1.01931 -1.055156,3.60696 -1.566995,5.7503 l -0.93062,3.89697 0.908135,3.55832 c 0.771044,3.02118 0.848689,3.73845 0.514325,4.75156 -0.324511,0.98327 -0.299048,1.32852 0.144679,1.96202 0.965432,1.37836 0.620976,3.27661 -0.897633,4.94679 -0.418318,0.46003 -0.800666,1.64619 -1.031084,3.19862 -0.431039,2.90421 -1.296539,4.15252 -3.294015,4.75099 -1.559745,0.46729 -3.878482,0.47803 -5.44363,0.0252 z"
       id="foot_L" />
    <path
       style="display:inline;fill:#000000;stroke-width:0.342791"
       d="m 103.10884,288.34067 c -1.39841,-0.73686 -2.42862,-2.53772 -2.42862,-4.24536 0,-1.50898 -0.57859,-3.28922 -1.42603,-4.38763 -0.742686,-0.96264 -0.805746,-2.93583 -0.132683,-4.15197 0.315452,-0.57 0.361597,-0.99105 0.138102,-1.26035 -0.593947,-0.71566 -0.378455,-2.95167 0.571307,-5.92804 1.048104,-3.28456 1.022914,-4.31326 -0.246401,-10.06462 -0.859342,-3.89376 -1.005572,-3.6233 2.553905,-4.72392 1.49894,-0.46348 3.37222,-0.73417 5.31328,-0.76777 2.99733,-0.0519 2.99805,-0.0517 2.94095,0.80508 -0.0314,0.47134 -0.1661,3.86497 -0.29931,7.5414 -0.22944,6.33223 -0.203,6.79279 0.50188,8.74117 0.40924,1.13121 0.83558,3.08984 0.9474,4.35247 0.19054,2.15146 0.25899,2.30224 1.08904,2.39956 0.70982,0.0832 1.00653,0.43013 1.4938,1.74684 0.58877,1.59091 0.58712,1.68404 -0.0519,2.93665 -0.36297,0.7115 -0.88583,1.48109 -1.16192,1.71023 -0.27609,0.22911 -0.6068,1.11556 -0.7349,1.96985 -0.14793,0.98647 -0.58908,1.95188 -1.20891,2.64559 -0.92999,1.04084 -1.11059,1.09718 -3.83214,1.19499 -2.23339,0.0803 -3.11142,-0.0319 -4.02685,-0.51418 z"
       id="foot_R" />
  </g>
</svg>
