<?xml version="1.0" encoding="UTF-8" standalone="no"?>
<!-- Created with Inkscape (http://www.inkscape.org/) -->

<svg
   width="150"
   height="300"
   viewBox="0 0 154.73121 291.19794"
   version="1.1"
   id="svg3760"
   sodipodi:docname="body_front_svg.svg"
   inkscape:version="1.1.1 (3bf5ae0d25, 2021-09-20)"
   xmlns:inkscape="http://www.inkscape.org/namespaces/inkscape"
   xmlns:sodipodi="http://sodipodi.sourceforge.net/DTD/sodipodi-0.dtd"
   xmlns="http://www.w3.org/2000/svg"
   xmlns:svg="http://www.w3.org/2000/svg">
  <sodipodi:namedview
     id="namedview3762"
     pagecolor="#ffffff"
     bordercolor="#666666"
     borderopacity="1.0"
     inkscape:pageshadow="2"
     inkscape:pageopacity="0.0"
     inkscape:pagecheckerboard="0"
     inkscape:document-units="mm"
     showgrid="false"
     fit-margin-top="0"
     fit-margin-left="0"
     fit-margin-right="0"
     fit-margin-bottom="0"
     inkscape:zoom="1"
     inkscape:cx="-9.5"
     inkscape:cy="226.5"
     inkscape:window-width="1680"
     inkscape:window-height="987"
     inkscape:window-x="-8"
     inkscape:window-y="-8"
     inkscape:window-maximized="1"
     inkscape:current-layer="layer4"
     showguides="false"
     inkscape:guide-bbox="true">
    <sodipodi:guide
       position="76.205121,236.96232"
       orientation="1,0"
       id="guide310" />
    <sodipodi:guide
       position="80.073401,234.05034"
       orientation="1,0"
       id="guide312" />
  </sodipodi:namedview>
  <defs
     id="defs3757" />
  <g
     inkscape:groupmode="layer"
     id="layer4"
     inkscape:label="front"
     style="display:inline">
    <path
       style="fill:#000000;stroke-width:0.344613"
       d="m 77.661984,35.653439 c 3.020262,-0.02838 5.928559,-3.13487 8.939557,-4.829529 l 0.558844,-1.976051 c 0.916034,-3.23906 0.686986,-3.691114 1.202648,-3.691114 0.755009,0 1.526962,-1.1506 1.905651,-2.840377 0.556219,-2.481956 0.575483,-4.933213 0.04381,-5.573843 -0.425046,-0.512151 -0.52142,-0.514159 -1.065037,-0.02219 -0.56339,0.509856 -0.607397,0.297646 -0.766439,-3.695895 C 88.261175,7.5042263 87.460236,4.8752323 85.389788,2.8778391 83.072166,0.6419897 81.980597,0.2267816 77.996613,0.0656393 c -3.22832,-0.1305775 -3.662547,-0.0693159 -5.512791,0.7777541 -2.459661,1.1260694 -3.397501,1.9719495 -4.414016,3.9811879 -1.012587,2.001478 -1.458819,4.16544 -1.759642,8.5331777 -0.209804,3.046207 -0.312464,3.473253 -0.748038,3.111757 -0.406912,-0.337705 -0.597917,-0.291737 -0.98449,0.236932 -1.25079,1.710556 0.435218,8.450297 2.113918,8.450297 0.254576,0 0.634325,1.172398 0.967528,2.987052 0.301664,1.642878 0.732299,3.088045 0.95697,3.226899 1.224999,0.757091 6.02567,4.311126 9.045932,4.282743 z"
       id="head"
       sodipodi:nodetypes="zcssssssssssssssssz" />
    <path
       style="fill:#000000;stroke-width:0.344613"
       d="m 90.331186,47.862427 c 1.82403,-0.164181 3.899858,-0.419732 4.612948,-0.567891 l 1.296534,-0.269377 -2.696821,-1.664288 C 90.202814,43.299024 87.72838,41.23624 86.806182,39.74409 c -0.585663,-0.94762 -0.663849,-1.457096 -0.466286,-3.038356 0.267937,-2.144481 0.234946,-2.302006 0.234946,-2.302006 -1.835691,0.349702 -6.557871,4.184124 -8.597217,4.22859 -2.039346,0.04447 -8.799455,-3.121803 -9.182508,-3.358544 -0.383053,-0.236741 -0.220825,0.445144 -0.16303,1.732087 l 0.101953,2.2702 -1.714945,1.766969 c -0.943216,0.971832 -3.181354,2.715512 -4.973637,3.874848 l -3.258691,2.10788 1.535626,0.26425 c 5.048104,0.868679 22.928234,1.209743 30.008793,0.572419 z"
       id="neck"
       sodipodi:nodetypes="sscsssczzscsscss" />
    <path
       style="fill:#000000;stroke-width:0.344612"
       d="m 102.13589,47.939205 c -0.22143,-0.003 -0.43769,0.004 -0.64751,0.02119 l -1.3782,0.113171 -0.10904,4.824513 c -0.173352,7.689344 0.74231,10.395725 4.89686,14.473533 2.13351,2.094109 4.82198,3.878514 6.1712,4.095875 0.22707,0.03658 0.80308,0.326315 1.28002,0.643371 0.81733,0.543343 3.57314,1.636077 4.12533,1.636077 0.13931,0 0.35125,-0.814122 0.47077,-1.809191 0.11952,-0.995069 0.2185,-3.363029 0.22015,-5.262213 0.005,-5.572181 -1.34607,-9.399789 -4.77129,-13.520103 -2.41835,-2.909115 -6.9368,-5.171577 -10.25829,-5.21622 z"
       id="shoulder_L" />
    <path
       style="fill:#000000;stroke-width:0.344612"
       d="m 54.448881,47.801746 -2.325957,0.214974 c -6.537457,0.604303 -12.463785,6.505588 -14.03532,13.976408 -0.288616,1.372032 -0.525031,3.624564 -0.525031,5.005896 0,3.02292 0.362209,6.757246 0.652155,6.72362 0.115155,-0.01336 0.807792,-0.243514 1.538925,-0.511595 0.731131,-0.268081 1.816627,-0.7884 2.412257,-1.15652 0.595625,-0.368115 1.160452,-0.670719 1.25522,-0.672309 1.206535,-0.02027 5.122976,-2.767119 7.050215,-4.94492 3.279555,-3.705929 3.96776,-6.014778 3.973401,-13.330452 z"
       id="shoulder_R" />
    <path
       style="fill:#000000;stroke-width:0.344612"
       d="m 120.33943,87.964152 c -0.0867,0.0019 -0.19548,0.03053 -0.32814,0.08475 -0.33169,0.135554 -1.37828,0.438518 -2.32596,0.672825 -3.00583,0.743175 -4.11647,1.415711 -6.13606,3.716054 l -1.96939,2.243273 0.88263,2.541963 c 0.48553,1.39822 1.02282,3.468733 1.19425,4.600753 0.39179,2.58721 1.9995,5.83967 2.93677,5.94176 0.37381,0.0407 1.53258,-0.20475 2.57504,-0.5457 3.46355,-1.13279 5.34757,-2.33656 7.71167,-4.92684 1.25513,-1.37521 2.28203,-2.751075 2.28203,-3.057177 0,-0.306099 -1.22048,-2.125273 -2.71198,-4.043161 -2.54485,-3.272364 -3.83594,-5.575901 -3.83594,-6.843511 0,-0.264637 -0.0842,-0.389258 -0.27492,-0.384989 z"
       id="elbow_L" />
    <path
       style="fill:#000000;stroke-width:0.344612"
       d="m 34.044958,87.964152 c -0.190857,-0.0027 -0.272851,0.127987 -0.272851,0.406177 0,0.996686 -1.331754,3.224097 -3.67316,6.143811 -3.580702,4.4651 -3.460631,4.173476 -2.346629,5.68286 1.842471,2.49641 4.143319,4.6327 6.019789,5.58932 1.605888,0.81868 5.149633,2.07739 5.84822,2.07739 0.115091,0 0.709814,-0.82615 1.321885,-1.83606 0.631412,-1.04183 1.330153,-2.87754 1.614887,-4.24315 0.276016,-1.32377 0.898337,-3.460247 1.382863,-4.747516 l 0.881081,-2.340425 -1.897041,-2.160077 c -2.00021,-2.278274 -3.398578,-3.137609 -6.222876,-3.823022 -0.947684,-0.229992 -1.994265,-0.529003 -2.325954,-0.664557 -0.134374,-0.05492 -0.243462,-0.08352 -0.330214,-0.08475 z"
       id="elbow_R" />
    <path
       style="fill:#000000;stroke-width:0.344612"
       d="m 129.22209,102.93481 c -0.20445,-0.0308 -1.01499,0.69772 -1.87999,1.69964 -2.17804,2.52283 -4.94285,4.28199 -8.59637,5.47047 l -2.94039,0.95653 1.36633,2.62258 c 0.75159,1.44243 2.37845,3.94105 3.61528,5.55211 4.79746,6.24907 7.86636,10.59153 8.8284,12.49227 0.55161,1.08983 1.11683,1.97444 1.25625,1.96577 0.13943,-0.009 1.10677,-0.46847 2.14923,-1.02165 1.04245,-0.55317 2.90315,-1.26088 4.13515,-1.57251 1.23199,-0.31163 2.29561,-0.61832 2.36368,-0.68161 0.068,-0.0633 -0.18785,-0.55226 -0.56845,-1.08676 -0.89572,-1.25793 -3.75683,-7.31275 -5.39243,-11.4117 -0.70482,-1.76635 -1.66108,-5.02284 -2.12545,-7.23677 -0.85642,-4.08305 -1.75137,-7.25884 -2.17868,-7.73183 -0.008,-0.009 -0.0189,-0.0145 -0.0326,-0.0165 z"
       id="forearm_L" />
    <path
       style="fill:#000000;stroke-width:0.344612"
       d="m 25.117338,102.35242 c -0.378109,-0.004 -1.287633,2.82555 -2.491321,7.75147 -1.267293,5.18622 -3.88745,11.59718 -7.042464,17.23047 l -1.737362,3.10162 2.295467,0.4532 c 1.262373,0.24927 2.644155,0.48175 3.070614,0.51677 0.426458,0.035 0.775146,0.17646 0.775146,0.31419 0,0.17701 2.673435,1.68546 2.907833,1.64072 0.01179,-0.002 0.550977,-0.97099 1.19786,-2.15335 1.305877,-2.38686 3.891548,-5.99227 6.661092,-9.28729 1.001948,-1.19205 2.343587,-2.83566 2.98173,-3.65249 1.306248,-1.67202 4.17132,-6.57374 4.17132,-7.13652 0,-0.2022 -0.732721,-0.56351 -1.628322,-0.80305 -3.989639,-1.06706 -8.125135,-3.82637 -10.115662,-6.74894 -0.458747,-0.67355 -0.929528,-1.22551 -1.045931,-1.2268 z"
       id="forearm_R" />
    <path
       style="fill:#000000;stroke-width:0.344613"
       d="m 86.312358,151.75206 c 3.425019,-0.50985 8.664959,-1.92551 10.52388,-2.84322 5.255472,-2.59451 6.559042,-3.31953 7.718192,-4.2927 l 1.32126,-1.10926 -0.76093,-3.95085 c -0.41852,-2.17296 -0.97713,-5.5016 -1.24136,-7.39697 -0.26424,-1.89537 -0.90556,-5.20489 -1.42517,-7.35449 l -0.94475,-3.90836 -1.27932,0.20457 c -6.062184,0.96939 -11.15698,1.29795 -21.997022,1.41861 -11.330695,0.12611 -14.667148,-0.0275 -22.878951,-1.05352 -1.632428,-0.20396 -1.887807,-0.15352 -2.053579,0.40555 -0.636142,2.14543 -1.693456,7.155 -2.138913,10.1342 -0.285605,1.91011 -0.90189,5.05218 -1.369523,6.98237 -1.133649,4.67924 -1.121574,4.79915 0.61347,6.09155 3.971606,2.95837 11.476811,5.73644 18.04951,6.68107 4.242275,0.60969 13.740522,0.60515 17.863206,-0.009 z"
       id="hip" />
    <path
       style="fill:#000000;stroke-width:0.344612"
       d="m 140.89012,133.86471 c -0.34245,-0.0112 -0.8668,0.11361 -1.83865,0.36535 -2.41618,0.62586 -6.30018,2.10168 -7.11481,2.7032 -0.90101,0.6653 -0.29306,5.07015 1.39733,10.12444 1.33589,3.99434 1.40973,4.43149 1.40973,8.32869 0,2.2622 0.0942,4.35832 0.20929,4.65812 0.28557,0.74418 1.76776,0.70096 1.98282,-0.0579 0.094,-0.33169 0.27665,-2.34754 0.40566,-4.47983 0.12902,-2.13229 0.36512,-3.87728 0.52504,-3.87728 0.31542,0 1.00767,2.19749 1.01079,3.2091 0.003,0.87446 1.70987,6.75926 2.2934,7.90495 0.52624,1.03322 1.73616,1.28448 2.06447,0.42891 0.10945,-0.28522 0.11735,-1.02151 0.0176,-1.63659 -0.34896,-2.15091 -1.22317,-7.33177 -1.43402,-8.49871 -0.11698,-0.64743 -0.30185,-1.32125 -0.41083,-1.49758 -0.10897,-0.17632 0.0661,-0.26715 0.38913,-0.20154 0.39547,0.0803 1.13639,1.52702 2.26756,4.42712 0.92409,2.36921 1.68678,4.46238 1.69498,4.65191 0.008,0.18954 0.3722,0.79133 0.80874,1.33687 0.99205,1.23976 2.30425,1.0337 2.30425,-0.36173 0,-0.90723 -1.19978,-5.09793 -2.63601,-9.20719 -0.45632,-1.30558 -0.75728,-2.44563 -0.66921,-2.5337 0.19597,-0.19596 1.42438,1.57959 3.6928,5.33818 1.36582,2.26308 1.8805,2.84324 2.52284,2.84324 0.44383,0 0.901,-0.2451 1.01596,-0.54467 0.24349,-0.63453 -1.03201,-4.04149 -2.89233,-7.72615 -1.13404,-2.24614 -2.41226,-5.74864 -2.41226,-6.60993 0,-0.58715 0.59369,-0.2493 0.95498,0.54364 0.41895,0.91949 2.26519,2.4195 3.40238,2.76417 0.46867,0.14205 0.9416,0.0216 1.29243,-0.32918 0.66772,-0.66772 0.69157,-1.00001 0.11524,-1.59939 -1.06432,-1.10685 -2.96792,-3.64658 -3.45922,-4.61522 -0.6325,-1.247 -4.2405,-3.76947 -6.24252,-4.36407 -0.7725,-0.22944 -1.63754,-0.69604 -1.92184,-1.03715 -0.24297,-0.29151 -0.40325,-0.43889 -0.74569,-0.4501 z"
       id="hand_L" />
    <path
       style="fill:#000000;stroke-width:0.344612"
       d="m 12.382714,133.7412 c -0.412694,0.001 -0.666109,0.0606 -0.666109,0.19327 0,0.17264 -0.671423,0.51259 -1.492415,0.75499 -1.732425,0.51153 -4.9830834,2.66978 -5.5314453,3.67265 -0.9343728,1.70884 -2.6306147,4.22758 -3.1207397,4.63434 -0.70937594,0.58873 -0.68577916,1.62418 0.046509,2.03399 0.796431,0.44571 2.0800098,-0.0804 3.4716227,-1.42266 l 1.127063,-1.08675 -0.6578409,1.8836 c -0.3618122,1.03601 -1.4319626,3.43454 -2.3781493,5.32991 -2.68174714,5.37201 -3.03818909,7.06417 -1.4867311,7.06417 0.792944,0 1.6935723,-1.14278 4.0054403,-5.0829 0.917494,-1.56367 1.7913773,-2.84323 1.9420001,-2.84323 0.1506241,0 -0.053075,0.81412 -0.4526854,1.80919 -0.39961,0.99507 -0.8000341,2.11949 -0.8898681,2.49856 -0.08983,0.37907 -0.6312144,2.19854 -1.2030273,4.04316 -0.5718162,1.84462 -0.9490986,3.5891 -0.8387086,3.87676 0.11039,0.28768 0.5755347,0.52297 1.0335287,0.52297 0.9782601,0 1.7293854,-1.01515 2.6391152,-3.56619 1.3277422,-3.72324 2.9502687,-7.23972 3.4111607,-7.39335 0.35736,-0.11912 0.423153,0.0496 0.256832,0.66146 -0.122809,0.45183 -0.45807,2.06229 -0.744657,3.57859 -0.286584,1.51629 -0.768307,3.79199 -1.0707356,5.05758 -0.3024288,1.2656 -0.4470834,2.46784 -0.3214272,2.67115 0.3944649,0.63826 1.8619028,0.41523 2.2685948,-0.34468 0.512302,-0.95724 2.246392,-6.88755 2.749186,-9.40253 0.221931,-1.1101 0.52693,-1.88582 0.677995,-1.72341 0.151064,0.16243 0.369756,2.22491 0.485759,4.58319 0.13493,2.74299 0.358965,4.37968 0.622184,4.54236 0.418863,0.25887 1.623859,-0.20929 1.691886,-0.65733 0.02057,-0.13548 0.155266,-2.34018 0.299207,-4.89892 0.245202,-4.35879 0.359944,-4.9131 1.815393,-8.78758 1.102472,-2.93483 1.6188,-4.89705 1.778702,-6.7598 l 0.22531,-2.62516 -1.130164,-0.42581 c -0.621606,-0.23422 -2.011836,-0.78883 -3.089217,-1.23248 -1.563709,-0.64393 -4.235484,-1.16333 -5.473568,-1.15911 z"
       id="hand_R" />
    <path
       style="fill:#000000;stroke-width:0.344612"
       d="m 106.36406,147.56258 c -0.32189,0.0101 -0.94682,0.36445 -2.16576,1.18184 -3.19369,2.1416 -6.680454,3.72022 -10.463446,4.73666 -4.014583,1.07866 -9.584443,1.93942 -12.549105,1.93942 -2.1683,0 -2.219222,0.0211 -2.436026,1.00821 -0.529892,2.41258 1.189198,11.91145 3.720703,20.55895 1.274209,4.35264 2.103546,8.02657 2.502172,11.08511 0.129691,0.99507 0.331851,1.79623 0.449585,1.78077 0.117735,-0.0154 1.14861,-0.47815 2.290816,-1.02836 1.142209,-0.55021 3.158056,-1.26402 4.479829,-1.58647 1.321777,-0.32245 2.455654,-0.71367 2.519228,-0.8692 0.06357,-0.15552 0.293595,-0.17245 0.511596,-0.0377 0.52297,0.32321 2.7115,0.12763 3.215825,-0.28732 0.21849,-0.17978 0.451466,-0.20434 0.517281,-0.0543 0.06582,0.15007 1.546022,0.14135 3.289722,-0.0196 l 3.17035,-0.29301 0.3638,-1.77457 c 0.70725,-3.44952 1.01259,-7.05248 1.43454,-16.93798 0.32861,-7.69878 0.33428,-10.9934 0.0253,-14.34693 -0.22059,-2.39426 -0.48951,-4.58444 -0.5979,-4.86688 -0.0486,-0.12662 -0.13222,-0.1932 -0.27853,-0.18862 z"
       id="upperLeg_L" />
    <path
       style="fill:#000000;stroke-width:0.344612"
       d="m 47.92318,147.16674 -0.343649,1.28416 c -1.326605,4.95207 -2.052294,28.18955 -1.075902,34.45267 l 0.442868,2.84324 2.28668,0.0672 c 7.410375,0.21807 12.351847,0.94075 15.82539,2.31407 1.002088,0.39619 1.873221,0.72037 1.936316,0.72037 0.06309,0 0.302191,-0.96927 0.531236,-2.15387 v -5.3e-4 c 0.508534,-2.63016 2.404798,-8.27105 2.886128,-8.58552 0.192627,-0.12584 0.383579,-0.59129 0.424264,-1.03405 0.04068,-0.44277 0.644234,-2.43336 1.341004,-4.4235 1.861873,-5.31797 3.261738,-11.02122 3.515545,-14.32316 l 0.223242,-2.90731 -2.549197,-0.006 c -4.64971,-0.0115 -11.416905,-1.26898 -16.161287,-3.00292 -2.153419,-0.78702 -5.719537,-2.68552 -7.656898,-4.07676 z"
       id="upperLeg_R" />
    <path
       style="fill:#000000;stroke-width:0.344612"
       d="m 47.039514,189.01998 -0.07855,2.41278 c -0.123142,3.76295 -2.074939,16.49116 -2.731614,17.8139 -0.272521,0.54892 -0.329065,1.00947 -0.137977,1.12758 0.827868,0.51165 5.1724,1.99111 7.219198,2.45824 1.252135,0.28577 3.207216,0.73858 4.344437,1.00614 3.64912,0.85854 3.395626,1.02456 5.708695,-3.73207 1.434201,-2.9493 2.221455,-5.07745 2.582273,-6.9789 0.285493,-1.5045 0.903208,-4.44131 1.372526,-6.52622 0.469315,-2.08491 0.851699,-3.96861 0.850077,-4.18631 -0.0053,-0.70739 -5.150467,-2.34043 -7.408333,-2.35127 -1.139302,-0.005 -2.226337,-0.0969 -2.415874,-0.20309 -0.189537,-0.1062 -0.771202,-0.17629 -1.292429,-0.15606 -0.521226,0.0202 -0.947745,-0.0616 -0.947745,-0.18139 0,-0.21023 -2.286529,-0.40542 -5.513874,-0.47129 z"
       id="knee_R" />
    <path
       style="fill:#000000;stroke-width:0.344612"
       d="m 105.18842,188.99778 -3.36569,0.24598 c -1.851173,0.13536 -3.458916,0.38251 -3.572907,0.54932 -0.113995,0.1668 -0.517511,0.32657 -0.896585,0.35501 -0.379074,0.0285 -1.698189,0.11502 -2.931089,0.19224 -1.488707,0.0932 -3.109132,0.5062 -4.82451,1.22938 -3.667358,1.54609 -3.809772,1.68528 -3.434416,3.35587 0.170738,0.75989 0.542975,3.25731 0.826823,5.55005 0.513075,4.14429 0.916747,5.5796 2.904215,10.32237 1.817812,4.33791 1.70289,4.26918 5.908167,3.54965 0.852918,-0.14594 2.248701,-0.4647 3.10162,-0.70797 0.852916,-0.24327 1.827802,-0.40472 2.166792,-0.35915 0.73936,0.0994 5.71553,-1.33871 5.95106,-1.71979 0.091,-0.1473 -0.0562,-0.85907 -0.32711,-1.58233 -0.27088,-0.72326 -0.66869,-3.25369 -0.88367,-5.62291 -0.21498,-2.36922 -0.54354,-5.68026 -0.7307,-7.35769 -0.18717,-1.67745 -0.23964,-4.16387 -0.11628,-5.52525 z"
       id="knee_L" />
    <path
       style="fill:#000000;stroke-width:0.344612"
       d="m 108.05749,214.81532 c -0.01,8e-4 -0.0199,0.003 -0.0294,0.006 -0.23161,0.0889 -1.56481,0.48526 -2.96313,0.88057 -1.39832,0.3953 -3.04274,0.88146 -3.65404,1.08055 -0.6113,0.1991 -1.851941,0.43213 -2.756938,0.5178 -0.904997,0.0857 -2.730873,0.27066 -4.057631,0.41135 l -2.412257,0.25579 0.0011,7.75405 c 0.0011,8.94037 0.20144,10.00325 3.432347,18.2237 2.13466,5.43125 3.021695,8.24646 3.62355,11.49904 0.236736,1.27938 0.528884,2.30827 0.649574,2.28618 0.120695,-0.022 0.839685,-0.27239 1.597835,-0.55606 1.58818,-0.59423 3.01643,-0.81985 5.68647,-0.89865 l 1.89498,-0.0563 0.092,-2.23964 c 0.0505,-1.23199 0.39571,-5.57399 0.76688,-9.64903 0.95476,-10.4824 1.15901,-15.86107 0.74931,-19.72024 -0.42666,-4.01888 -1.99133,-9.83714 -2.62052,-9.79527 z"
       id="lowerLeg_L" />
    <path
       style="fill:#000000;stroke-width:0.344612"
       d="m 42.502322,213.45313 c -0.01492,-5.3e-4 -0.02408,0.001 -0.0279,0.005 -0.06573,0.0657 -0.663171,1.64062 -1.327568,3.49953 -2.259553,6.32195 -2.485904,9.9987 -1.91616,31.16347 0.260323,9.67058 -0.197898,8.72727 4.018359,8.26409 1.326758,-0.14575 3.139712,-0.19306 4.02921,-0.10542 l 1.617472,0.15917 0.382923,-1.48828 c 1.073804,-4.17367 1.638697,-5.71483 3.955315,-10.79263 4.038446,-8.85189 4.607144,-11.19897 4.894791,-20.1998 l 0.205155,-6.41511 -1.512051,-0.22376 c -0.83144,-0.12303 -2.209429,-0.29691 -3.062346,-0.38602 -2.117172,-0.2212 -3.149393,-0.44084 -3.963066,-0.84336 -1.19575,-0.59154 -6.831439,-2.62234 -7.294129,-2.63705 z"
       id="lowerLeg_R" />
    <path
       style="fill:#000000;stroke-width:0.344612"
       d="m 48.306619,259.57796 -2.701126,0.0884 c -1.485659,0.0486 -3.4945,0.10727 -4.463812,0.13023 l -1.762164,0.0413 -0.217043,1.58234 c -0.119256,0.87008 -0.559367,2.30428 -0.978234,3.18741 -0.632388,1.33331 -0.767545,2.24883 -0.797367,5.39657 -0.03195,3.37183 -0.141319,4.01937 -0.990637,5.85854 -0.525163,1.13723 -1.38417,2.53251 -1.90841,3.1011 -1.713286,1.8583 -3.091746,4.10546 -3.520715,5.73815 -0.36581,1.39232 -0.34425,1.72001 0.16588,2.49857 0.322911,0.49281 0.816121,0.89556 1.096058,0.89556 0.279934,0 0.509013,0.15515 0.509013,0.34467 0,0.18955 0.465434,0.34468 1.034045,0.34468 0.568611,0 1.034044,0.1729 1.034044,0.38396 0,0.23159 0.415452,0.32234 1.048515,0.22945 0.576956,-0.0847 1.129186,-0.0246 1.226799,0.13332 0.340267,0.55057 1.856303,0.28379 2.284616,-0.40203 0.494514,-0.79188 0.953429,-0.90123 0.953429,-0.22739 0,0.50499 1.409819,1.26244 2.342494,1.25884 0.32277,0 1.007879,-0.2798 1.522386,-0.61908 1.225896,-0.80843 2.9582,-3.38925 3.234946,-4.81986 0.120624,-0.62357 0.03679,-1.78638 -0.186036,-2.58434 -0.34176,-1.22391 -0.312777,-1.66698 0.184486,-2.8298 0.374644,-0.87611 0.575603,-2.19474 0.551386,-3.61839 -0.02397,-1.41091 0.233453,-3.12004 0.696082,-4.61833 0.662223,-2.14468 0.692012,-2.56854 0.299722,-4.30773 -0.935815,-4.14893 -1.061614,-5.03566 -0.863512,-6.09163 z"
       id="foot_R" />
    <path
       style="fill:#000000;stroke-width:0.344612"
       d="m 108.79337,259.44411 -2.20969,0.18346 c -1.2156,0.10065 -3.11586,0.4513 -4.22248,0.77981 -1.95867,0.58145 -2.01738,0.63466 -2.21795,1.99573 -0.11332,0.76898 -0.543075,2.59326 -0.954981,4.05402 -0.728316,2.58289 -0.733131,2.72172 -0.172083,5.04621 0.317305,1.31461 0.576707,3.40937 0.576707,4.655 0,1.24563 0.239679,2.97 0.532267,3.8318 0.41213,1.21391 0.45131,1.85717 0.17415,2.85515 -0.504584,1.81687 -0.426218,2.83064 0.32556,4.2173 0.35966,0.66339 0.80342,1.52799 0.98599,1.92132 0.48782,1.05098 1.92689,1.86966 3.28714,1.86966 1.16192,0 2.27686,-0.71025 2.27686,-1.45003 0,-0.20156 0.32134,0.0421 0.71417,0.54155 0.81511,1.03624 1.41729,1.13967 2.18229,0.37468 0.40458,-0.4046 0.69587,-0.44598 1.20665,-0.17262 0.50769,0.2717 0.80012,0.23342 1.18856,-0.15502 0.28338,-0.28339 0.74398,-0.42754 1.02319,-0.32041 0.27921,0.10716 0.61592,0.0193 0.74827,-0.19481 0.13236,-0.21415 0.61605,-0.53197 1.07487,-0.70641 2.18241,-0.82976 1.59603,-4.2101 -1.36632,-7.87651 -1.02148,-1.26429 -2.34514,-3.41014 -2.94142,-4.76872 -0.9682,-2.20594 -1.04762,-2.62877 -0.74259,-3.95118 0.5209,-2.2583 0.42729,-3.88969 -0.34727,-6.05544 -0.38807,-1.08511 -0.79925,-3.03086 -0.91364,-4.32377 z"
       id="foot_L" />
    <path
       style="fill:#000000;stroke-width:0.344613"
       d="M 76.205121,119.1355 V 51.59976 c 0,0 -13.496137,-0.433846 -17.534189,-1.160484 l -1.120189,-0.203488 -0.004,3.398848 c -0.0057,7.376093 -1.489054,11.359587 -5.820553,15.632285 -1.441095,1.421535 -3.627536,3.170036 -4.859527,3.884398 -2.691328,1.560548 -6.951712,3.244804 -8.614983,3.406907 -1.06942,0.104229 -1.277243,0.293224 -1.827359,1.668196 -1.021388,2.552872 -1.993602,7.322372 -1.450605,7.114009 0.798874,-0.306561 5.025262,0.76262 6.549885,1.656108 0.809185,0.474212 2.226514,1.692281 3.149022,2.707796 l 1.67827,1.845493 1.124219,-1.922053 c 1.432386,-2.448334 2.442287,-4.569927 3.213493,-6.749342 0.679542,-1.920366 0.687155,-1.908218 1.529179,2.240379 0.326993,1.611064 1.047517,4.402747 1.60171,6.20335 1.724567,5.603207 1.979078,11.480648 0.751494,17.403238 -0.275002,1.32676 -0.592893,3.92421 -0.70717,5.77219 -0.16997,2.74861 -0.120968,3.36112 0.274003,3.36662 0.265552,0.004 2.498296,0.24199 4.962279,0.52987 2.669611,0.31191 4.161614,0.44525 11.469853,0.61247 z"
       sodipodi:nodetypes="cccccsssssscccssssscssc"
       id="body_R" />
    <path
       style="fill:#000000;stroke-width:0.344613"
       d="m 80.073401,119.29063 c 0,0 8.394157,-0.0512 8.554541,-0.21961 0.128858,-0.13531 1.055563,-0.23949 2.061068,-0.2317 1.005504,0.008 3.615857,-0.20924 5.79839,-0.48151 2.182538,-0.27229 4.08274,-0.49613 4.22489,-0.49764 0.51877,-0.006 0.24178,-6.24862 -0.42914,-9.65257 -1.151443,-5.84185 -0.821859,-11.537475 1.01341,-17.50397 0.56574,-1.839243 1.28852,-4.572359 1.60574,-6.072394 l 0.57621,-2.725929 0.78373,2.083231 c 0.73784,1.962706 3.51475,7.333614 3.79172,7.333614 0.07,0 0.86353,-0.789173 1.76491,-1.752814 0.90138,-0.963645 2.33408,-2.157757 3.18327,-2.655413 1.68499,-0.987471 5.12858,-1.839 6.2517,-1.545298 0.77419,0.202451 0.77787,0.443557 -0.0444,-3.350495 -0.5355,-2.471044 -1.68249,-5.562903 -1.99256,-5.371268 -0.51604,0.318929 -3.79121,-0.63296 -6.54182,-1.901904 -7.57555,-3.494819 -12.471631,-9.1153 -13.478546,-15.471107 -0.195175,-1.231991 -0.357188,-3.773058 -0.358621,-5.645271 l -0.0021,-3.402878 -1.37203,0.219605 c -4.534483,0.725118 -15.390438,1.154455 -15.390438,1.154455 z"
       sodipodi:nodetypes="cscscsscccssssssssccccc"
       id="body_L" />
  </g>
</svg>
